REM DIRINDEX 1\2,1\3,1\4,1\5
REM DIRNAME "folder01","folder02","folder03","folder04","folder05"
TITLE ""
FILE "1Q_t_1810-1819.mp3" MP3
  TRACK 01 AUDIO
    TITLE "3:cjc172_6429"
    INDEX 01 00:00:00
  TRACK 02 AUDIO
    TITLE "0:"
    INDEX 01 00:01:10
  TRACK 03 AUDIO
    TITLE "4:cjc172_6430"
    INDEX 01 00:01:22
  TRACK 04 AUDIO
    TITLE "0:"
    INDEX 01 00:02:33
  TRACK 05 AUDIO
    TITLE "5:cjc172_6431"
    INDEX 01 00:02:43
  TRACK 06 AUDIO
    TITLE "0:"
    INDEX 01 00:09:13
  TRACK 07 AUDIO
    TITLE "3:cjc172_6432"
    INDEX 01 00:09:60
  TRACK 08 AUDIO
    TITLE "0:"
    INDEX 01 00:10:75
  TRACK 09 AUDIO
    TITLE "4:cjc172_6433"
    INDEX 01 00:11:12
  TRACK 10 AUDIO
    TITLE "0:"
    INDEX 01 00:14:07
  TRACK 11 AUDIO
    TITLE "5:cjc172_6434"
    INDEX 01 00:14:14
  TRACK 12 AUDIO
    TITLE "0:"
    INDEX 01 00:20:25
  TRACK 13 AUDIO
    TITLE "3:cjc172_6435"
    INDEX 01 00:20:72
  TRACK 14 AUDIO
    TITLE "0:"
    INDEX 01 00:21:67
  TRACK 15 AUDIO
    TITLE "4:cjc172_6436"
    INDEX 01 00:22:04
  TRACK 16 AUDIO
    TITLE "0:"
    INDEX 01 00:25:34
  TRACK 17 AUDIO
    TITLE "5:cjc172_6437"
    INDEX 01 00:25:42
  TRACK 18 AUDIO
    TITLE "0:"
    INDEX 01 00:31:32
  TRACK 19 AUDIO
    TITLE "3:cjc172_6438"
    INDEX 01 00:32:04
  TRACK 20 AUDIO
    TITLE "0:"
    INDEX 01 00:33:22
  TRACK 21 AUDIO
    TITLE "4:cjc172_6439"
    INDEX 01 00:33:29
  TRACK 22 AUDIO
    TITLE "0:"
    INDEX 01 00:35:07
  TRACK 23 AUDIO
    TITLE "5:cjc172_6440"
    INDEX 01 00:35:16
  TRACK 24 AUDIO
    TITLE "0:"
    INDEX 01 00:39:51
  TRACK 25 AUDIO
    TITLE "3:cjc172_6441"
    INDEX 01 00:40:25
  TRACK 26 AUDIO
    TITLE "0:"
    INDEX 01 00:41:37
  TRACK 27 AUDIO
    TITLE "4:cjc172_6442"
    INDEX 01 00:41:46
  TRACK 28 AUDIO
    TITLE "0:"
    INDEX 01 00:44:31
  TRACK 29 AUDIO
    TITLE "5:cjc172_6443"
    INDEX 01 00:44:41
  TRACK 30 AUDIO
    TITLE "0:"
    INDEX 01 00:49:32
  TRACK 31 AUDIO
    TITLE "3:cjc172_6444"
    INDEX 01 00:50:06
  TRACK 32 AUDIO
    TITLE "0:"
    INDEX 01 00:51:27
  TRACK 33 AUDIO
    TITLE "4:cjc172_6445"
    INDEX 01 00:51:39
  TRACK 34 AUDIO
    TITLE "0:"
    INDEX 01 00:54:04
  TRACK 35 AUDIO
    TITLE "5:cjc172_6446"
    INDEX 01 00:54:12
  TRACK 36 AUDIO
    TITLE "0:"
    INDEX 01 00:59:70
  TRACK 37 AUDIO
    TITLE "3:cjc172_6447"
    INDEX 01 01:00:42
  TRACK 38 AUDIO
    TITLE "0:"
    INDEX 01 01:01:39
  TRACK 39 AUDIO
    TITLE "4:cjc172_6448"
    INDEX 01 01:01:53
  TRACK 40 AUDIO
    TITLE "0:"
    INDEX 01 01:02:72
  TRACK 41 AUDIO
    TITLE "5:cjc172_6449"
    INDEX 01 01:03:05
  TRACK 42 AUDIO
    TITLE "0:"
    INDEX 01 01:07:16
  TRACK 43 AUDIO
    TITLE "3:cjc172_6450"
    INDEX 01 01:07:64
  TRACK 44 AUDIO
    TITLE "0:"
    INDEX 01 01:08:61
  TRACK 45 AUDIO
    TITLE "4:cjc172_6451"
    INDEX 01 01:08:71
  TRACK 46 AUDIO
    TITLE "0:"
    INDEX 01 01:10:32
  TRACK 47 AUDIO
    TITLE "5:cjc172_6452"
    INDEX 01 01:10:40
  TRACK 48 AUDIO
    TITLE "0:"
    INDEX 01 01:15:47
  TRACK 49 AUDIO
    TITLE "3:cjc172_6453"
    INDEX 01 01:16:19
  TRACK 50 AUDIO
    TITLE "0:"
    INDEX 01 01:17:40
  TRACK 51 AUDIO
    TITLE "4:cjc172_6454"
    INDEX 01 01:17:48
  TRACK 52 AUDIO
    TITLE "0:"
    INDEX 01 01:20:50
  TRACK 53 AUDIO
    TITLE "5:cjc172_6455"
    INDEX 01 01:20:58
  TRACK 54 AUDIO
    TITLE "0:"
    INDEX 01 01:24:66
  TRACK 55 AUDIO
    TITLE "3:cjc172_6456"
    INDEX 01 01:25:38
  TRACK 56 AUDIO
    TITLE "0:"
    INDEX 01 01:26:35
  TRACK 57 AUDIO
    TITLE "4:cjc172_6457"
    INDEX 01 01:26:47
  TRACK 58 AUDIO
    TITLE "0:"
    INDEX 01 01:29:51
  TRACK 59 AUDIO
    TITLE "5:cjc172_6458"
    INDEX 01 01:29:61
  TRACK 60 AUDIO
    TITLE "0:"
    INDEX 01 01:34:19
